HIERARCHY
ROOT Root
{
  OFFSET 0.0 0.0 0.0
  CHANNELS 6 Xposition Yposition Zposition Zrotation Yrotation Xrotation
  JOINT Hips
  {
    OFFSET 0.0 100.0 0.0
    CHANNELS 6 Xposition Yposition Zposition Zrotation Yrotation Xrotation
    JOINT Spine1
    {
      OFFSET 5.003913 -0.037094 -0.013727
      CHANNELS 3 Zrotation Yrotation Xrotation
      JOINT Spine2
      {
        OFFSET 7.125363 -1e-06 0.0
        CHANNELS 3 Zrotation Yrotation Xrotation
        JOINT Chest
        {
          OFFSET 7.594027 1e-06 0.0
          CHANNELS 3 Zrotation Yrotation Xrotation
          JOINT Neck1
          {
            OFFSET 26.313086 -0.460272 -0.181672
            CHANNELS 3 Zrotation Yrotation Xrotation
            JOINT Neck2
            {
              OFFSET 8.045911 0.0 0.0
              CHANNELS 3 Zrotation Yrotation Xrotation
              JOINT Head
              {
                OFFSET 6.432774 0.0 0.0
                CHANNELS 3 Zrotation Yrotation Xrotation
                JOINT HeadEnd
                {
                  OFFSET 16.169773 0.06451 0.00362
                  CHANNELS 3 Zrotation Yrotation Xrotation
                }
                JOINT Jaw
                {
                  OFFSET 0.108741 3.12938 0.002639
                  CHANNELS 3 Zrotation Yrotation Xrotation
                }
                JOINT LeftEye
                {
                  OFFSET 4.45173 8.166359 3.206392
                  CHANNELS 3 Zrotation Yrotation Xrotation
                }
                JOINT RightEye
                {
                  OFFSET 4.436895 8.135758 -3.222429
                  CHANNELS 3 Zrotation Yrotation Xrotation
                }
              }
            }
          }
          JOINT LeftShoulder
          {
            OFFSET 23.218927 5.195579 1.621656
            CHANNELS 3 Zrotation Yrotation Xrotation
            JOINT LeftArm
            {
              OFFSET 15.902118 2e-06 -2e-06
              CHANNELS 3 Zrotation Yrotation Xrotation
              JOINT LeftForeArm
              {
                OFFSET 28.739307 0.0 -1e-06
                CHANNELS 3 Zrotation Yrotation Xrotation
                JOINT LeftHand
                {
                  OFFSET 27.093981 -4e-06 0.0
                  CHANNELS 3 Zrotation Yrotation Xrotation
                  JOINT LeftHandThumb1
                  {
                    OFFSET 2.276781 3.380274 0.83384
                    CHANNELS 3 Zrotation Yrotation Xrotation
                    JOINT LeftHandThumb2
                    {
                      OFFSET 4.705309 -1e-06 -1e-06
                      CHANNELS 3 Zrotation Yrotation Xrotation
                      JOINT LeftHandThumb3
                      {
                        OFFSET 2.798515 0.0 3e-06
                        CHANNELS 3 Zrotation Yrotation Xrotation
                        JOINT LeftHandThumbEnd
                        {
                          OFFSET 3.180793 4e-06 -4e-06
                          CHANNELS 3 Zrotation Yrotation Xrotation
                        }
                      }
                    }
                  }
                  JOINT LeftHandIndex1
                  {
                    OFFSET 3.247786 2.352677 0.137192
                    CHANNELS 3 Zrotation Yrotation Xrotation
                    JOINT LeftHandIndex2
                    {
                      OFFSET 6.367095 1e-06 0.0
                      CHANNELS 3 Zrotation Yrotation Xrotation
                      JOINT LeftHandIndex3
                      {
                        OFFSET 3.662364 0.0 0.0
                        CHANNELS 3 Zrotation Yrotation Xrotation
                        JOINT LeftHandIndex4
                        {
                          OFFSET 2.329242 4e-06 -4e-06
                          CHANNELS 3 Zrotation Yrotation Xrotation
                          JOINT LeftHandIndexEnd
                          {
                            OFFSET 2.767823 1e-06 0.0
                            CHANNELS 3 Zrotation Yrotation Xrotation
                          }
                        }
                      }
                    }
                  }
                  JOINT LeftHandMiddle1
                  {
                    OFFSET 3.163612 0.945023 -0.406112
                    CHANNELS 3 Zrotation Yrotation Xrotation
                    JOINT LeftHandMiddle2
                    {
                      OFFSET 6.276789 3e-06 0.0
                      CHANNELS 3 Zrotation Yrotation Xrotation
                      JOINT LeftHandMiddle3
                      {
                        OFFSET 4.35652 -1e-06 4e-06
                        CHANNELS 3 Zrotation Yrotation Xrotation
                        JOINT LeftHandMiddle4
                        {
                          OFFSET 2.996877 0.0 8e-06
                          CHANNELS 3 Zrotation Yrotation Xrotation
                          JOINT LeftHandMiddleEnd
                          {
                            OFFSET 2.323256 3e-06 -4e-06
                            CHANNELS 3 Zrotation Yrotation Xrotation
                          }
                        }
                      }
                    }
                  }
                  JOINT LeftHandRing1
                  {
                    OFFSET 2.882606 -0.309162 0.107445
                    CHANNELS 3 Zrotation Yrotation Xrotation
                    JOINT LeftHandRing2
                    {
                      OFFSET 6.033198 0.0 4e-06
                      CHANNELS 3 Zrotation Yrotation Xrotation
                      JOINT LeftHandRing3
                      {
                        OFFSET 4.350578 3e-06 0.0
                        CHANNELS 3 Zrotation Yrotation Xrotation
                        JOINT LeftHandRing4
                        {
                          OFFSET 2.651321 2e-06 -7e-06
                          CHANNELS 3 Zrotation Yrotation Xrotation
                          JOINT LeftHandRingEnd
                          {
                            OFFSET 1.937663 1e-06 -4e-06
                            CHANNELS 3 Zrotation Yrotation Xrotation
                          }
                        }
                      }
                    }
                  }
                  JOINT LeftHandPinky1
                  {
                    OFFSET 2.865315 -1.525436 0.575687
                    CHANNELS 3 Zrotation Yrotation Xrotation
                    JOINT LeftHandPinky2
                    {
                      OFFSET 5.54936 1e-06 -8e-06
                      CHANNELS 3 Zrotation Yrotation Xrotation
                      JOINT LeftHandPinky3
                      {
                        OFFSET 3.070974 0.0 -4e-06
                        CHANNELS 3 Zrotation Yrotation Xrotation
                        JOINT LeftHandPinky4
                        {
                          OFFSET 1.549672 1e-06 0.0
                          CHANNELS 3 Zrotation Yrotation Xrotation
                          JOINT LeftHandPinkyEnd
                          {
                            OFFSET 1.952123 0.0 0.0
                            CHANNELS 3 Zrotation Yrotation Xrotation
                          }
                        }
                      }
                    }
                  }
                }
              }
            }
          }
          JOINT RightShoulder
          {
            OFFSET 23.161716 5.296122 -1.380114
            CHANNELS 3 Zrotation Yrotation Xrotation
            JOINT RightArm
            {
              OFFSET -16.027195 -2e-06 1.1e-05
              CHANNELS 3 Zrotation Yrotation Xrotation
              JOINT RightForeArm
              {
                OFFSET -28.736639 4e-06 2e-06
                CHANNELS 3 Zrotation Yrotation Xrotation
                JOINT RightHand
                {
                  OFFSET -27.133619 6e-06 0.0
                  CHANNELS 3 Zrotation Yrotation Xrotation
                  JOINT RightHandThumb1
                  {
                    OFFSET -2.274328 -3.351035 -0.83067
                    CHANNELS 3 Zrotation Yrotation Xrotation
                    JOINT RightHandThumb2
                    {
                      OFFSET -4.703594 -3e-06 2e-06
                      CHANNELS 3 Zrotation Yrotation Xrotation
                      JOINT RightHandThumb3
                      {
                        OFFSET -2.794935 -4e-06 -3e-06
                        CHANNELS 3 Zrotation Yrotation Xrotation
                        JOINT RightHandThumbEnd
                        {
                          OFFSET -3.183852 4e-06 1e-06
                          CHANNELS 3 Zrotation Yrotation Xrotation
                        }
                      }
                    }
                  }
                  JOINT RightHandIndex1
                  {
                    OFFSET -3.253496 -2.33755 -0.127667
                    CHANNELS 3 Zrotation Yrotation Xrotation
                    JOINT RightHandIndex2
                    {
                      OFFSET -6.344434 0.0 0.0
                      CHANNELS 3 Zrotation Yrotation Xrotation
                      JOINT RightHandIndex3
                      {
                        OFFSET -3.654871 0.0 -8e-06
                        CHANNELS 3 Zrotation Yrotation Xrotation
                        JOINT RightHandIndex4
                        {
                          OFFSET -2.327586 -1e-06 0.0
                          CHANNELS 3 Zrotation Yrotation Xrotation
                          JOINT RightHandIndexEnd
                          {
                            OFFSET -2.770001 3e-06 8e-06
                            CHANNELS 3 Zrotation Yrotation Xrotation
                          }
                        }
                      }
                    }
                  }
                  JOINT RightHandMiddle1
                  {
                    OFFSET -3.168223 -0.944764 0.411762
                    CHANNELS 3 Zrotation Yrotation Xrotation
                    JOINT RightHandMiddle2
                    {
                      OFFSET -6.266691 -1e-06 -4e-06
                      CHANNELS 3 Zrotation Yrotation Xrotation
                      JOINT RightHandMiddle3
                      {
                        OFFSET -4.348901 0.0 0.0
                        CHANNELS 3 Zrotation Yrotation Xrotation
                        JOINT RightHandMiddle4
                        {
                          OFFSET -3.00024 2e-06 -4e-06
                          CHANNELS 3 Zrotation Yrotation Xrotation
                          JOINT RightHandMiddleEnd
                          {
                            OFFSET -2.321477 -4e-06 -4e-06
                            CHANNELS 3 Zrotation Yrotation Xrotation
                          }
                        }
                      }
                    }
                  }
                  JOINT RightHandRing1
                  {
                    OFFSET -2.885654 0.293261 -0.119232
                    CHANNELS 3 Zrotation Yrotation Xrotation
                    JOINT RightHandRing2
                    {
                      OFFSET -6.032835 -1e-06 -4e-06
                      CHANNELS 3 Zrotation Yrotation Xrotation
                      JOINT RightHandRing3
                      {
                        OFFSET -4.33881 0.0 -4e-06
                        CHANNELS 3 Zrotation Yrotation Xrotation
                        JOINT RightHandRing4
                        {
                          OFFSET -2.654903 -4e-06 -4e-06
                          CHANNELS 3 Zrotation Yrotation Xrotation
                          JOINT RightHandRingEnd
                          {
                            OFFSET -1.935122 0.0 4e-06
                            CHANNELS 3 Zrotation Yrotation Xrotation
                          }
                        }
                      }
                    }
                  }
                  JOINT RightHandPinky1
                  {
                    OFFSET -2.866241 1.503904 -0.60527
                    CHANNELS 3 Zrotation Yrotation Xrotation
                    JOINT RightHandPinky2
                    {
                      OFFSET -5.553177 -2e-06 0.0
                      CHANNELS 3 Zrotation Yrotation Xrotation
                      JOINT RightHandPinky3
                      {
                        OFFSET -3.062664 -1e-06 -4e-06
                        CHANNELS 3 Zrotation Yrotation Xrotation
                        JOINT RightHandPinky4
                        {
                          OFFSET -1.546529 2e-06 4e-06
                          CHANNELS 3 Zrotation Yrotation Xrotation
                          JOINT RightHandPinkyEnd
                          {
                            OFFSET -1.952341 0.0 -4e-06
                            CHANNELS 3 Zrotation Yrotation Xrotation
                          }
                        }
                      }
                    }
                  }
                }
              }
            }
          }
        }
      }
    }
    JOINT LeftLeg
    {
      OFFSET -8.443107 2.567604 10.043214
      CHANNELS 3 Zrotation Yrotation Xrotation
      JOINT LeftShin
      {
        OFFSET 43.229198 1e-06 -1e-06
        CHANNELS 3 Zrotation Yrotation Xrotation
        JOINT LeftFoot
        {
          OFFSET 42.298611 1e-06 1e-06
          CHANNELS 3 Zrotation Yrotation Xrotation
          JOINT LeftToeBase
          {
            OFFSET 14.165858 1e-06 0.0
            CHANNELS 3 Zrotation Yrotation Xrotation
            JOINT LeftToeEnd
            {
              OFFSET 6.7141 -0.234461 0.0
              CHANNELS 3 Zrotation Yrotation Xrotation
            }
          }
        }
      }
    }
    JOINT RightLeg
    {
      OFFSET -8.303923 2.592729 -10.047278
      CHANNELS 3 Zrotation Yrotation Xrotation
      JOINT RightShin
      {
        OFFSET -43.369682 0.0 1e-06
        CHANNELS 3 Zrotation Yrotation Xrotation
        JOINT RightFoot
        {
          OFFSET -42.260784 4e-06 2e-06
          CHANNELS 3 Zrotation Yrotation Xrotation
          JOINT RightToeBase
          {
            OFFSET -14.222245 -2e-06 -1e-06
            CHANNELS 3 Zrotation Yrotation Xrotation
            JOINT RightToeEnd
            {
              OFFSET -6.660062 0.232574 -2e-06
              CHANNELS 3 Zrotation Yrotation Xrotation
            }
          }
        }
      }
    }
  }
}
MOTION
Frames: 4
Frame Time: 0.03333333333333333
0.0 0.0 0.0 0.0 -0.0 0.0 -0.558472 24.804241 3.408215 50.445908 -86.548721 148.694153 0.695067 -4.665901 -0.445851 -8.36947 -2.969929 -0.216495 17.407248 -9.831187 -4.815519 -10.34679 7.960107 5.503886 -2.356568 -0.10288 -7.570208 -18.420269 6.49736 -10.279737 5e-06 -0.0 0.0 -0.211897 0.064779 -0.039712 -0.30899 0.490959 -0.045611 -0.280827 -0.377466 -0.0208 -31.645882 -81.509186 40.66048 87.622971 20.683964 -40.033413 105.926544 1.738423 -1.323565 -22.294647 11.039928 74.211769 17.636627 -26.322733 52.411194 -19.466665 -14.3956 29.410393 -1e-06 -8.774822 -1e-06 16.895542 -16.917017 6.270523 -0.609776 -1.795654 -3.889328 -4.807091 -11.046813 -2.93785 1e-06 -20.976019 -0.0 -5.019974 -25.033562 -4.03188 6e-06 1e-06 -1e-06 -10.634533 -5.686971 -3.565586 10.573274 -17.922955 -3.113902 2e-06 -13.821209 1e-06 -0.501778 -31.181507 -4.027015 -12.408784 -60.65451 8.683396 -13.982712 -7.150199 -2.875041 13.772726 -8.40149 -3.218242 0.347732 -34.211555 0.771656 -0.963029 -17.73337 2.621018 0.0 -0.0 -0.0 -17.346422 -20.095219 -4.20178 21.757561 -1.638375 3.866427 1e-06 -6.338822 1e-06 -1.697591 -22.591747 -6.194006 -0.0 -5e-06 -2e-06 144.642685 -76.436424 39.388607 32.620251 15.289155 -90.587997 82.894165 -0.668794 0.485706 5.096668 6.721192 41.519909 22.182114 -20.375895 49.933319 -16.701815 -16.743528 28.476534 -4e-06 -12.690601 -0.0 16.093786 -17.770224 2.674451 -0.105919 -1.513856 -4.275881 -5.039038 -5.612871 -2.953557 2e-06 -11.020523 -1e-06 -6.111293 -15.895334 -3.84047 -1e-06 2e-06 -0.0 -10.283365 -5.680287 -4.341839 11.028294 -11.302406 -2.372633 -1.384266 -14.238584 -6.320121 -0.625437 -26.924191 -3.827601 -4.423229 -48.657444 -3.865905 -13.708516 -7.363475 -3.72094 18.14115 -14.052739 -3.242675 7e-06 -18.78727 -1e-06 -0.429715 -8.456045 2.555503 0.0 -1e-06 0.0 -15.923526 -20.094482 -5.473585 30.419207 -7.190826 1.735925 4e-06 -8.162927 -1e-06 -1.861901 -22.861479 -6.167943 -1e-06 -1e-06 -1e-06 113.57576 -38.983635 -18.884439 99.010681 -10.737829 7.179579 -54.938213 25.613117 -1.038656 -10.782286 1.645325 3.225095 -0.999999 0.0 -1e-06 -15.710441 -2.566509 115.757881 -7.658072 47.000717 -106.696526 -118.057076 -28.743259 2.667005 -47.653545 1.21643 1.172088 -1.000004 -0.0 0.0 
0.0 0.0 0.0 0.0 -0.0 0.0 -1.040425 23.265017 4.799597 49.042576 -86.354492 152.077209 0.332238 -5.026989 -0.504532 -8.577203 -3.086828 -0.348092 17.597979 -10.486333 -5.204961 -10.30276 9.070556 5.309458 -2.383845 -0.195993 -8.077381 -19.158924 6.97252 -11.478918 6e-06 -0.0 -0.0 -0.232047 0.080337 -0.066916 -0.341589 0.478717 -0.070325 -0.281171 -0.332983 -0.05594 -30.264128 -81.907455 40.225914 88.764198 20.555904 -38.959751 107.045944 1.196649 -1.772504 -22.552834 9.952388 75.877655 17.636627 -26.32272 52.411179 -19.466652 -14.395594 29.410378 -0.0 -8.77482 -4e-06 16.679136 -16.939287 6.424961 -0.609775 -1.795654 -3.889327 -4.807089 -11.046807 -2.93785 4e-06 -20.976009 -1e-06 -5.019969 -25.033546 -4.03188 6e-06 -0.0 0.0 -10.634533 -5.686968 -3.565586 10.573273 -17.922945 -3.113899 2e-06 -13.821203 2e-06 -0.501775 -31.181488 -4.027016 -12.336245 -60.805683 8.768286 -13.982711 -7.150195 -2.875041 13.772728 -8.401491 -3.21824 0.347735 -34.211536 0.771656 -0.963029 -17.733362 2.621018 -0.0 -0.0 -0.0 -17.346416 -20.095211 -4.201783 21.757555 -1.638378 3.866429 1e-06 -6.338821 1e-06 -1.697589 -22.591738 -6.194005 -0.0 -5e-06 -3e-06 134.660645 -76.89183 49.962479 35.420189 13.738734 -89.024757 84.965866 -0.356711 0.123826 2.589069 5.485999 42.091545 22.182121 -20.375893 49.933315 -16.701813 -16.74353 28.47653 -3e-06 -12.690601 -0.0 16.369698 -17.564049 2.599989 -0.105922 -1.513856 -4.275882 -5.039041 -5.612872 -2.953556 2e-06 -11.020524 -2e-06 -6.111296 -15.895334 -3.840472 0.0 -1e-06 0.0 -10.283373 -5.680288 -4.341838 11.028296 -11.302406 -2.372633 -1.384267 -14.238585 -6.320121 -0.625438 -26.924192 -3.827601 -4.515232 -48.771427 -3.805848 -13.708524 -7.363477 -3.720939 18.141151 -14.052741 -3.242675 8e-06 -18.787271 -1e-06 -0.42971 -8.456045 2.555503 1e-06 1e-06 -1e-06 -15.923536 -20.094484 -5.473584 30.419222 -7.190827 1.735926 3e-06 -8.162927 -1e-06 -1.861903 -22.861475 -6.167945 -1e-06 -3e-06 -1e-06 109.045067 -38.874249 -15.847259 104.95961 -9.211696 6.600043 -57.606205 21.913967 -1.278124 -10.556993 1.7421 3.120569 -0.999997 1e-06 -2e-06 -13.139974 -2.895217 110.55188 -4.07379 43.842064 -100.126091 -115.738556 -29.147665 3.202081 -45.031071 1.156068 1.231418 -1.000001 -1e-06 -0.0 
0.0 0.0 0.0 0.0 -0.0 0.0 -1.637024 21.890944 6.14064 52.737591 -86.127831 150.494278 -0.113691 -5.548658 -0.517279 -8.850174 -3.277146 -0.655056 17.960875 -11.152739 -5.74474 -9.736904 10.526394 5.158454 -2.444599 -0.432097 -8.633297 -19.841368 6.94664 -12.441543 7e-06 -0.0 -1e-06 -0.253277 0.084816 -0.083108 -0.459027 0.460239 -0.095464 -0.356509 -0.30515 -0.068927 -28.142088 -82.37252 39.10363 89.070236 20.185833 -37.380302 108.008888 1.051548 -1.960519 -22.86422 9.039612 76.612099 17.636631 -26.322721 52.411171 -19.466654 -14.395596 29.410372 0.0 -8.774821 -3e-06 16.633915 -16.88739 6.447123 -0.609776 -1.795653 -3.889326 -4.807087 -11.046806 -2.937849 4e-06 -20.976006 2e-06 -5.019969 -25.033546 -4.031878 6e-06 0.0 -1e-06 -10.634531 -5.686967 -3.565586 10.573271 -17.922947 -3.113899 2e-06 -13.821203 2e-06 -0.501777 -31.181494 -4.027014 -12.338674 -61.009079 8.969815 -13.982712 -7.150195 -2.875041 13.772727 -8.401489 -3.218239 0.347735 -34.211536 0.771658 -0.963028 -17.733362 2.62102 -0.0 -0.0 -1e-06 -17.346413 -20.095207 -4.201779 21.757555 -1.638377 3.866427 2e-06 -6.338818 3e-06 -1.69759 -22.591734 -6.194002 -0.0 -5e-06 -3e-06 124.969147 -76.418159 60.400841 39.005116 11.610966 -88.123337 87.364479 -0.374586 -0.296861 -0.038505 4.958527 43.438747 22.182121 -20.375891 49.933315 -16.701813 -16.74353 28.47653 -1e-06 -12.690603 -2e-06 16.615177 -17.397232 2.58899 -0.105918 -1.513856 -4.275881 -5.039044 -5.612872 -2.953556 1e-06 -11.020523 -1e-06 -6.1113 -15.895334 -3.840471 -0.0 -1e-06 1e-06 -10.283371 -5.680289 -4.341837 11.028296 -11.302404 -2.372632 -1.38427 -14.238585 -6.320122 -0.625442 -26.924191 -3.827604 -4.669757 -49.00909 -3.742935 -13.708529 -7.363477 -3.720938 18.141151 -14.052738 -3.242672 6e-06 -18.78727 -1e-06 -0.429713 -8.456043 2.555504 1e-06 -0.0 -0.0 -15.923539 -20.094484 -5.473582 30.419218 -7.190824 1.735928 2e-06 -8.162926 -0.0 -1.861906 -22.861473 -6.167946 1e-06 -2e-06 -1e-06 104.315605 -38.520535 -12.934443 111.230499 -7.836538 6.070598 -59.972652 17.857042 -1.713071 -10.644866 1.808717 3.107786 -0.999997 1e-06 -1e-06 -10.031419 -3.21296 105.479485 -1.24614 40.247387 -94.193207 -112.819092 -29.912783 3.772591 -42.865879 1.092317 1.2578 -1.000005 -0.0 0.0 
0.0 0.0 0.0 0.0 -0.0 0.0 -2.155253 20.515924 7.342161 57.245415 -85.894821 147.735382 -0.687531 -6.053552 -0.537008 -9.111761 -3.478523 -1.021601 18.256889 -11.902335 -6.210907 -8.922204 12.000306 5.040761 -2.501601 -0.846856 -9.180155 -20.299545 6.627218 -13.141664 6e-06 -0.0 -0.0 -0.266213 0.10523 -0.096921 -0.578845 0.458767 -0.12208 -0.447354 -0.263944 -0.073728 -25.680635 -82.791649 37.554874 88.720818 19.640423 -35.85463 109.036163 1.100043 -2.064686 -23.217276 8.346023 77.244392 17.636635 -26.322729 52.411179 -19.466663 -14.395596 29.410381 -0.0 -8.774822 -4e-06 16.670593 -16.890055 6.429978 -0.609778 -1.795655 -3.889327 -4.807087 -11.046811 -2.93785 4e-06 -20.976019 -0.0 -5.019971 -25.03356 -4.03188 6e-06 -1e-06 -0.0 -10.634533 -5.68697 -3.565587 10.573272 -17.922955 -3.1139 2e-06 -13.821209 1e-06 -0.501776 -31.181507 -4.027015 -12.406558 -61.213387 9.205274 -13.982714 -7.150198 -2.875041 13.77273 -8.401493 -3.218241 0.347735 -34.211555 0.771655 -0.963028 -17.733368 2.621019 0.0 -1e-06 -0.0 -17.34642 -20.095217 -4.201782 21.757557 -1.638378 3.866429 2e-06 -6.338822 2e-06 -1.69759 -22.591747 -6.194007 -0.0 -5e-06 -2e-06 117.139259 -75.291649 68.916763 43.119812 9.45065 -87.338142 89.427284 -0.319877 -0.765492 -2.615424 4.644192 45.311581 22.182108 -20.375891 49.933319 -16.701815 -16.743526 28.476532 -3e-06 -12.690598 -1e-06 16.935289 -17.349306 2.528052 -0.10592 -1.513856 -4.275881 -5.039042 -5.612872 -2.953557 2e-06 -11.020524 -2e-06 -6.111294 -15.895334 -3.840472 1e-06 -1e-06 0.0 -10.283371 -5.680288 -4.341837 11.028296 -11.302405 -2.372633 -1.384266 -14.238581 -6.32012 -0.625439 -26.924187 -3.827602 -4.883548 -49.299194 -3.661621 -13.708522 -7.363476 -3.720939 18.141146 -14.052739 -3.242674 9e-06 -18.78727 -3e-06 -0.429712 -8.456042 2.555501 1e-06 1e-06 0.0 -15.92353 -20.094482 -5.473585 30.419205 -7.190824 1.735926 1e-06 -8.162925 -1e-06 -1.861902 -22.861467 -6.167942 0.0 -1e-06 0.0 99.747978 -38.1241 -10.173177 117.457375 -6.739078 5.572913 -62.989738 14.039204 -2.138373 -10.88426 1.858897 3.136583 -0.999998 1e-06 -2e-06 -6.830048 -3.198927 101.47477 0.52386 36.51585 -90.061333 -110.163628 -31.016132 4.484665 -40.545029 1.020407 1.270067 -1.000005 -0.0 1e-06 
